<svg xmlns="http://www.w3.org/2000/svg" fill="#efefef" viewBox="0 0 469.34 469.34">
  <defs/>
  <path d="M469.25 10.01a10.65 10.65 0 00-18.18-6.88C387.1 67.1 327.9 93.32 275.67 116.44l-2.45 1.1a10.68 10.68 0 00-5.82 6.37l-1.6 4.86a10.71 10.71 0 00-12.23-2.4c-29.29 13.4-60.1 29.34-86.9 54.96a10.72 10.72 0 00-3.3 7.41c-.16 6.45.38 12.9 1.67 19.33a59.12 59.12 0 01-5.06-3.89c-2.23-1.9-5.1-2.8-8.02-2.48-2.92.3-5.56 1.78-7.33 4.1-53.2 69-58.76 155.8-59.26 166.07-23.32 21.46-50.22 47.23-82.25 79.26a10.66 10.66 0 1015.09 15.08c32.47-32.48 59.66-58.5 83.11-80.03a96.47 96.47 0 0022.6 2.49c37.6 0 106.8-17.67 203.58-114.46C474.63 127.07 469.54 14.73 469.25 10.01zM312.42 259.13c-94.3 94.3-158.78 108.42-190.02 108.01 42.31-37.59 71.32-59.3 98.07-79.3 38.12-28.48 74.14-55.39 139.03-120.3a10.66 10.66 0 10-15.09-15.08c-63.8 63.81-99.21 90.27-136.7 118.3-26.94 20.13-56.14 42-98.52 79.58 4.25-28.77 15.6-79.22 46.19-123.14 8.95 5.55 17.7 8 26.68 7.45a10.69 10.69 0 008.98-15 70.88 70.88 0 01-6.31-26.01c19.85-18.12 41.82-30.87 67.8-43.24 2.5 6.78 3.69 11.88 3.7 11.96a10.66 10.66 0 0020.52 1.02l9.4-28.25C334 113.95 387.43 89.96 445.4 37.89c-7.16 40.15-33.97 122.22-132.98 221.24z"/>
</svg>