<svg xmlns="http://www.w3.org/2000/svg" fill="#fff" viewBox="0 -28 512 512">
  <defs/>
  <path d="M256 455.52a30.02 30.02 0 01-19.8-7.44A5933.57 5933.57 0 00178 398l-.1-.07C126.33 353.97 81.78 316 50.8 278.6 16.13 236.81 0 197.17 0 153.87 0 111.8 14.43 73 40.62 44.57 67.12 15.84 103.49 0 143.03 0c29.56 0 56.62 9.34 80.45 27.77 12.02 9.3 22.92 20.68 32.52 33.96 9.6-13.28 20.5-24.66 32.53-33.96C312.35 9.34 339.42 0 368.97 0c39.54 0 75.91 15.83 102.42 44.58C497.58 72.98 512 111.8 512 153.88c0 43.3-16.13 82.93-50.78 124.73-30.99 37.4-75.53 75.35-127.1 119.3a5873.47 5873.47 0 00-58.33 50.18 30.05 30.05 0 01-19.79 7.43zM143.03 29.99c-31.07 0-59.6 12.4-80.37 34.92C41.6 87.76 30 119.36 30 153.87c0 36.42 13.53 68.99 43.88 105.6 29.33 35.4 72.96 72.58 123.48 115.63l.1.08a5991.81 5991.81 0 0158.5 50.33 7000.36 7000.36 0 0158.71-50.42c50.52-43.05 94.14-80.22 123.47-115.61 30.35-36.62 43.88-69.2 43.88-105.6 0-34.52-11.6-66.12-32.67-88.97-20.76-22.52-49.3-34.92-80.37-34.92-22.76 0-43.65 7.24-62.1 21.5-16.44 12.72-27.9 28.8-34.6 40.05-3.46 5.78-9.54 9.24-16.27 9.24s-12.8-3.46-16.26-9.24c-6.71-11.25-18.17-27.33-34.61-40.05-18.45-14.26-39.34-21.5-62.1-21.5zm0 0"/>
</svg>