<svg xmlns="http://www.w3.org/2000/svg" viewBox="0 0 127.37 444.37">
  <defs/>
  <g fill="none" stroke="#707070" stroke-width="2">
    <g transform="translate(20.63)">
      <ellipse cx="43" cy="46" stroke="none" rx="43" ry="46"/>
      <ellipse cx="43" cy="46" rx="42" ry="45"/>
    </g>
    <path d="M50.27 91.72s2.69 6.52-11.56 10.48-15.57 3.54-22.98 8.51-12.85 15.23-14.34 33.8 2.87 57.77 3.45 62.64 5.46 47.12 6.93 58.53 2.97 15.1 4.45 18.96 4.54 6.48 7.42 6.3 4.41-5.49 4.41-5.49"/>
    <path d="M25.78 234.18l5.51 119.7 3.51 80.18s-.05 4.34 2.15 6.81 7.8 2.5 7.8 2.5a12.92 12.92 0 007.25-2.5c2.97-2.47 3.04-6.8 3.04-6.8l8.54-138.88M22.63 145.95c1.36 81.53-2.82 87.32 11.76 88.15s30.1 1 30.1 1M77.1 91.72s-2.69 6.52 11.56 10.48 15.57 3.54 22.98 8.51 12.85 15.23 14.34 33.8-2.87 57.77-3.45 62.64-5.46 47.12-6.93 58.53-2.97 15.1-4.45 18.96-4.54 6.48-7.43 6.3-4.4-5.49-4.4-5.49"/>
    <path d="M101.6 234.18l-5.52 119.7-3.51 80.18s.05 4.34-2.15 6.81-7.8 2.5-7.8 2.5a12.92 12.92 0 01-7.25-2.5c-2.97-2.47-3.04-6.8-3.04-6.8L63.8 295.18M104.74 145.95c-1.36 81.53 2.82 87.32-11.76 88.15s-28.81 1-28.81 1"/>
  </g>
</svg>