<svg xmlns="http://www.w3.org/2000/svg" viewBox="0 0 139.9 157.7">
  <defs/>
  <defs>
    <clipPath id="a">
      <path fill="#fff" stroke="#707070" d="M0 0h52v74H0z" transform="translate(433 275)"/>
    </clipPath>
  </defs>
  <g fill="#fed02f">
    <path d="M114.8 80.8a6.3 6.3 0 01.5 1.9 5.1 5.1 0 01-2.4 4.3 9.7 9.7 0 01-4.8 1.5H103c-4 .2-14.5 1-16.4 6a3.4 3.4 0 000 2.5c1 2.3 3.4 3.4 5.6 4.6s5.6 1.8 7.8 2.9c2.1 1 8.9 4 6.1 8.7a2.8 2.8 0 01-1.8 1 4.9 4.9 0 01-1.5.3 4.8 4.8 0 01-3-1.4c-5.7-5.3-14.9-11.6-18.5-10a2.4 2.4 0 00-1.4 1.3c-.5 1.7.2 3.4 1 5a37 37 0 004.2 6.3l3 3.3.5.7a33.3 33.3 0 014.8 8.5 17.9 17.9 0 011.4 7.2 9.3 9.3 0 01-2.9 6.5 6.4 6.4 0 01-6.8 1.2 9.4 9.4 0 01-2.2-1.7 17.6 17.6 0 01-2.5-2.8v-.1a23.4 23.4 0 01-2.9-11.4c-.3-4.8-.8-16.5-4.4-16.3-1.5 0-2.4 1.7-3 3-1.7 3.9-1.4 8.3-2.6 12.3a22 22 0 01-5.3 8.8 13.3 13.3 0 01-3.4 2.7 6.2 6.2 0 01-4.3.7 3.3 3.3 0 01-2.2-1.6 4 4 0 01-.3-2.1 14.5 14.5 0 013.4-7.4c1.7-2.2 3.7-4 5.5-6a23.4 23.4 0 004-6.3 13.4 13.4 0 001-7.3 4.3 4.3 0 00-2-3.4 3.4 3.4 0 00-1.6-.3c-2.4.1-4.4 2-5.7 4s-2.2 4.2-3.8 6a11.3 11.3 0 01-4.2 3.2 7.3 7.3 0 01-5.4.3 4.4 4.4 0 01-2.9-4.2 5.4 5.4 0 011.5-3 16.5 16.5 0 016.1-4c2.9-1.2 6-2 8.1-4.2.9-.8 2-1.8 1.7-3a4.3 4.3 0 00-2.7-2.6 11.8 11.8 0 00-3.8-.5c-6.5-.2-13.3.3-19.5-2a11.7 11.7 0 01-3.7-2.3 5.9 5.9 0 01-.9-7.7 4 4 0 014-1.2 11.3 11.3 0 013.8 1.8c3.4 2.3 6.9 4.7 10.7 6s8.5 1 11.8-1.3a6.7 6.7 0 003-5.8C60 81 58 79 56.4 77a18.7 18.7 0 01-2.6-4.9 7.5 7.5 0 01-.6-3.5 3.4 3.4 0 012-2.9c2-.6 4 1 4.7 3s.4 4 1.3 5.8c4.6 9.1 9.3 3.8 9.7-1.4a46.2 46.2 0 00.3-6.1c-.3-5.6-.3-11.3 1.2-16.7a10.1 10.1 0 011.6-3.7 4.3 4.3 0 013.4-1.8 4.2 4.2 0 013.4 2.6 8.6 8.6 0 01.6 4.4 19.4 19.4 0 01-1.2 5c-7.5 19.7-2.3 20.9-1.2 20.8a5.8 5.8 0 003.1-1.4 21.3 21.3 0 004.9-5c1-1.7 2-3.4 3.2-5l.3-.3c1.4-1.6 3.5-2.8 5.6-2.4a3.2 3.2 0 012 1.1 3.7 3.7 0 01.3 3.3 9 9 0 01-3.8 4.6c-1 .7-2.2 1.6-3.3 2.6a28 28 0 00-3.9 3.7c-2.1 2.7-3 5.5-.3 7.5 1.4 1 3.5-.4 5.1-1.1l1.2-.6c4.1-1.9 8-4.4 12-6.5 2-1 4.3-1.8 6.3-1a6.4 6.4 0 013.1 3.8zM46 56c.3 2.6 1.7 7.4 6 5.4a3.6 3.6 0 002.2-3.4c-.6-9.8-8.7-6.8-8.1-2zM26.3 125c1.3 2.4 5.6 4.4 9.8 0 2-1.9.7-4.7.2-5.7a5.2 5.2 0 00-1.2-1.7 4.6 4.6 0 00-3.6-.9c-3.8.6-7.4 4.5-5.2 8.4zM116.3 121.6c5.1 3.5 13.3-3 4.5-8.7-2.9-1.8-6.5-1-7.6 1-1.2 2.3.4 5.9 3 7.7z"/>
  </g>
  <g fill="#feaa29">
    <path d="M93.4 128.2a17.9 17.9 0 011.4 7.2 9.3 9.3 0 01-2.9 6.5 6.4 6.4 0 01-6.8 1.2 9.4 9.4 0 01-2.2-1.7 17.6 17.6 0 01-2.5-2.8v-.1c3.2.5 5.5.8 8-2s3.5-9.6.2-16.8a33.3 33.3 0 014.8 8.5zM75.5 50.1a7.3 7.3 0 01.5 4.4c-4.1 22.1 2 23.5 2.6 23-1.6-.3-5.1-3 1.6-20.7a19.4 19.4 0 001.2-5.1 8.6 8.6 0 00-.6-4.4 4.2 4.2 0 00-3.5-2.5 4.3 4.3 0 00-3.3 1.7 7 7 0 00-.8 1.4 4.6 4.6 0 012.3 2.2zM98.4 67.8a9 9 0 01-3.7 4.6c-1.1.7-2.3 1.6-3.4 2.6a37 37 0 002.4-4.3c1.7-3-2.2-4.3-3-4.5a4.5 4.5 0 00-.5 0l.1-.2.2-.2c1.4-1.6 3.5-2.8 5.6-2.4a3.2 3.2 0 012 1.1 3.7 3.7 0 01.3 3.3zM92.2 101.6c-2.2-1.2-4.7-2.3-5.6-4.6a3.4 3.4 0 010-2.5 5 5 0 011-1.7c-6.8 5.1 4.5 12.2 5.7 12.8 1.9.9 8.5 4.9 8.1 8.6a4 4 0 001.4.3 4.9 4.9 0 001.5-.2 2.8 2.8 0 001.8-1.1c2.8-4.8-4-7.8-6-8.7-2.3-1.1-5.8-1.7-8-2.9zM111.8 77c-2-.8-4.4 0-6.4 1l-4.4 2.4c1.7-.7 3.7-1.3 5.4-.5a7.6 7.6 0 013.5 5.6 4.6 4.6 0 01-.8 2.9 9 9 0 003.8-1.4 5.1 5.1 0 002.4-4.3 7.7 7.7 0 00-3.5-5.6zM69.7 115a2.2 2.2 0 00-2-1.4c-1.5.1-2.3 1.8-3 3.1-1.7 3.8-1.3 8.3-2.5 12.3a22 22 0 01-5.4 8.7l-.7.7a7 7 0 002.7-.8A13.3 13.3 0 0062 135a22 22 0 005.4-8.8c1-3.6 1-7.6 2.2-11.1zM29.6 87.4c11.8 5.3 23.3 4 23.6 3.6a15.4 15.4 0 01-7.6-.6c-3.9-1.2-7.3-3.6-10.7-5.8a11.3 11.3 0 00-3.9-2 4 4 0 00-3.9 1.3 5.4 5.4 0 00-.8 1.8 30 30 0 013.3 1.7z"/>
  </g>
  <g fill="#2dc96b">
    <path d="M125.5 28.4a3.4 3.4 0 01.4 1 2.8 2.8 0 01-.8 2.5 5.2 5.2 0 01-2.5 1.2l-2.7.5c-2.1.5-7.6 1.9-8.1 4.7a1.8 1.8 0 00.2 1.4c.7 1 2.1 1.4 3.4 1.9s3.2.4 4.4.7c1.2.4 5.1 1.3 4 4.1a1.5 1.5 0 01-.7.8 2.6 2.6 0 01-.8.2 2.6 2.6 0 01-1.7-.4c-3.6-2.3-9-4.8-10.8-3.6a1.3 1.3 0 00-.6.8 3.5 3.5 0 001 2.5 20 20 0 002.8 3l1.9 1.5.3.3a18 18 0 013.3 4 9.6 9.6 0 011.5 3.7 5 5 0 01-1 3.8 3.4 3.4 0 01-3.5 1.2 5 5 0 01-1.3-.6 9.5 9.5 0 01-1.5-1.3h-.1c-1.5-1.6-2-3.8-2.6-5.8-.6-2.6-2-8.7-3.9-8.3-.8.2-1 1.2-1.3 2-.5 2.2 0 4.5-.2 6.7a11.9 11.9 0 01-2 5.2 7.2 7.2 0 01-1.6 1.8 3.4 3.4 0 01-2.1.7 1.8 1.8 0 01-1.4-.6 2.1 2.1 0 01-.3-1.2 7.8 7.8 0 011-4.2l2.4-3.7a12.6 12.6 0 001.6-3.7 7.2 7.2 0 00-.2-4 2.3 2.3 0 00-1.3-1.6 1.8 1.8 0 00-1 0 4.2 4.2 0 00-2.6 2.6 34 34 0 01-1.4 3.6 6 6 0 01-2 2 4 4 0 01-2.8.8 2.4 2.4 0 01-2-2 3 3 0 01.6-1.7 8.9 8.9 0 012.8-2.8c1.4-.9 3-1.6 4-2.9.3-.5.8-1.2.5-1.8a2.3 2.3 0 00-1.6-1 6.3 6.3 0 00-2 0c-3.6.5-7.1 1.4-10.6.8a6.3 6.3 0 01-2.2-1 3.2 3.2 0 01-1.2-4 2.1 2.1 0 012-1 6 6 0 012.2.7 24.4 24.4 0 006.2 2.1 7.1 7.1 0 006.2-1.7 3.6 3.6 0 001-3.4c-.4-1.3-1.7-2.1-2.7-3a10.1 10.1 0 01-1.9-2.4 4 4 0 01-.6-1.9 1.9 1.9 0 01.8-1.6c1-.6 2.2.1 2.7 1s.6 2.2 1.3 3c3.3 4.5 5.3 1.2 5-1.6a24.9 24.9 0 00-.4-3.3 28.9 28.9 0 01-1-9 5.5 5.5 0 01.6-2 2.3 2.3 0 011.6-1.3 2.3 2.3 0 012 1 4.6 4.6 0 01.8 2.3 10.5 10.5 0 01-.2 2.8c-2 11.1.7 11.3 1.3 11.1a3.1 3.1 0 001.6-1 11.5 11.5 0 002-3.2c.5-1 .8-2 1.3-2.8v-.1l.1-.2A3.4 3.4 0 01114 21a1.7 1.7 0 011.1.4 2 2 0 01.5 1.7 4.8 4.8 0 01-1.5 2.8l-1.6 1.7a15 15 0 00-1.7 2.4c-.9 1.6-1 3.1.6 4 .8.4 1.8-.6 2.6-1.1l.6-.4c2-1.4 3.7-3.1 5.7-4.6a4.1 4.1 0 013.3-1 3.4 3.4 0 012 1.6zM86.6 21.7c.4 1.3 1.6 3.7 3.7 2.3a2 2 0 00.8-2c-1.2-5.2-5.2-2.8-4.5-.3zM82.7 60.2c.9 1.1 3.3 1.8 5.1-.9.9-1.2 0-2.6-.4-3a2.8 2.8 0 00-.8-.9 2.5 2.5 0 00-2 0c-2 .6-3.5 3-2 4.8zM130 50c3.1 1.3 6.9-2.9 1.6-5.1-1.6-.7-3.5 0-3.9 1.2-.4 1.3.8 3.1 2.4 3.8z"/>
  </g>
  <g fill="#1fb159">
    <path d="M118.5 55.6a9.6 9.6 0 011.5 3.6 5 5 0 01-1 3.8 3.4 3.4 0 01-3.5 1.3 5 5 0 01-1.3-.7 9.5 9.5 0 01-1.6-1.3c1.7 0 3-.1 4.1-1.8s1-5.5-1.5-9a18 18 0 013.3 4zM101.7 15.8a4 4 0 01.7 2.3c-.1 12.1 3.2 12.3 3.5 12-.9 0-3-1.2-1-11.2a10.5 10.5 0 000-2.8 4.6 4.6 0 00-.6-2.3 2.3 2.3 0 00-2.1-1 2.3 2.3 0 00-1.6 1.2 3.8 3.8 0 00-.3.8 2.5 2.5 0 011.4 1zM115.5 23a4.8 4.8 0 01-1.5 2.8l-1.6 1.7a20 20 0 00.9-2.5c.6-1.7-1.6-2-2-2a2.4 2.4 0 00-.3 0v-.1l.2-.2a3.4 3.4 0 012.7-1.8 1.7 1.7 0 011.1.4 2 2 0 01.5 1.7zM115.4 41.6c-1.3-.5-2.7-.8-3.4-2a1.8 1.8 0 01-.2-1.3 2.7 2.7 0 01.4-1c-3.2 3.4 3.5 6.1 4.2 6.3 1 .3 5 1.8 5 3.8a2.1 2.1 0 00.8 0 2.6 2.6 0 00.8-.3 1.5 1.5 0 00.9-.7c1-2.8-2.9-3.7-4-4-1.3-.4-3.3-.4-4.5-.8zM123.5 26.7a4.1 4.1 0 00-3.3 1.1l-2.1 1.7a3.7 3.7 0 012.8-.8 4.1 4.1 0 012.4 2.7 2.5 2.5 0 01-.2 1.6 4.8 4.8 0 002-1.1 2.8 2.8 0 00.8-2.6 4.1 4.1 0 00-2.4-2.6zM104.7 50.8a1.2 1.2 0 00-1.2-.5c-.7.1-1 1.1-1.2 1.9-.6 2.2 0 4.5-.3 6.7a11.9 11.9 0 01-2 5.2l-.3.4a3.7 3.7 0 001.3-.6 7.2 7.2 0 001.6-1.8 11.9 11.9 0 002-5.2c.2-2-.2-4.1.1-6.1zM80.8 40a23 23 0 0013-.4 8.3 8.3 0 01-4.2.4 24.4 24.4 0 01-6.2-2.1 6 6 0 00-2.2-.6 2.1 2.1 0 00-2 1 2.9 2.9 0 00-.3 1 16.1 16.1 0 012 .6z"/>
  </g>
  <g>
    <g fill="#ff4c4d">
      <path d="M75.5 42.9a4.8 4.8 0 01-.4 1.5 3.9 3.9 0 01-3 2 7.4 7.4 0 01-3.9-.7l-3.4-1.8c-2.7-1.3-10-4.5-13.1-1.8a2.6 2.6 0 00-.9 1.7c-.2 1.8 1.1 3.4 2.1 5s3.1 3.2 4.3 4.7c1 1.4 4.5 5.8 1 8a2.1 2.1 0 01-1.6.1 3.7 3.7 0 01-1.2-.4 3.6 3.6 0 01-1.4-2C52 53.7 48 46.3 45 46a1.8 1.8 0 00-1.4.5 4.9 4.9 0 00-1 3.6 28 28 0 00.5 5.7L44 59l.1.7a25.2 25.2 0 01.2 7.3 13.5 13.5 0 01-1.6 5.3 7 7 0 01-4.3 3.4 4.8 4.8 0 01-5-1.7 7.1 7.1 0 01-.8-1.9 13.3 13.3 0 01-.7-2.7v-.1c-.3-3 1-6 2.2-8.7 1.4-3.3 5.3-11.3 2.8-12.4-1-.5-2.2.3-3.1 1-2.5 2-3.9 5-6 7.3a16.7 16.7 0 01-6.8 4 10 10 0 01-3.2.5 4.7 4.7 0 01-3.1-1 2.5 2.5 0 01-1-1.9 3 3 0 01.7-1.5 11 11 0 014.8-3.8c2-.8 4-1.3 5.9-2a17.7 17.7 0 005-2.8 10.1 10.1 0 003.2-4.5 3.3 3.3 0 00-.2-3 2.6 2.6 0 00-1-.7c-1.6-.8-3.6-.3-5.2.6a47.7 47.7 0 01-4.7 2.7 8.5 8.5 0 01-3.9.6 5.6 5.6 0 01-3.7-1.7 3.3 3.3 0 01-.5-3.9 4.1 4.1 0 012-1.4 12.5 12.5 0 015.6-.6c2.3.2 4.7.8 7 .2.8-.3 2-.6 2-1.5a3.3 3.3 0 00-.8-2.6 8.9 8.9 0 00-2.3-1.8c-4.4-2.4-9-4.5-12.4-8.2a8.8 8.8 0 01-1.6-2.9 4.4 4.4 0 012.1-5.4 3 3 0 013 .5 8.5 8.5 0 012 2.7c1.5 2.7 3 5.5 5 7.7s5.3 3.8 8.4 3.3a5 5 0 004-2.7c.8-1.8 0-3.9-.3-5.8a14.2 14.2 0 010-4.2 5.7 5.7 0 01.8-2.6 2.6 2.6 0 012.4-1.1c1.5.2 2.3 2 2 3.5s-1.1 3-1.1 4.4c-.2 7.8 4.9 5.9 7 2.6a35 35 0 002.3-4A40.5 40.5 0 0158 7.3a7.7 7.7 0 012.3-1.9 3.2 3.2 0 012.9 0 3.2 3.2 0 011.4 3 6.5 6.5 0 01-1.2 3.1 14.7 14.7 0 01-2.6 3c-12 10.5-9 13-8.1 13.4a4.4 4.4 0 002.5.2 16.2 16.2 0 005.1-1.7c1.3-.7 2.5-1.5 3.9-2.1h.1l.2-.1a4.8 4.8 0 014.6.3 2.4 2.4 0 011 1.5 2.8 2.8 0 01-1 2.3 6.7 6.7 0 01-4.1 1.7l-3.2.6a21.2 21.2 0 00-3.9 1.1c-2.4 1-4 2.6-2.9 4.9.6 1.2 2.5 1 3.9 1l1 .1c3.4.2 6.8-.1 10.2 0 1.7 0 3.6.2 4.6 1.5a4.8 4.8 0 01.8 3.6zM38.3 2c-.7 1.8-1.5 5.4 2.1 5.7A2.8 2.8 0 0043 6.2c3.1-6.8-3.4-7.6-4.7-4.3zM.6 41.1c0 2 2.2 4.9 6.5 3.5 2-.6 2.2-3 2.2-3.8a4 4 0 00-.2-1.6A3.5 3.5 0 007 37.4c-2.7-1-6.5.3-6.4 3.7zM62 70.7c2.1 4.2 10 2.8 6-4.2-1.2-2.2-4-3-5.3-2-1.7 1.1-1.9 4-.8 6.2z"/>
    </g>
    <g fill="#f33a3a">
      <path d="M44.3 67a13.5 13.5 0 01-1.6 5.3 7 7 0 01-4.3 3.4 4.8 4.8 0 01-5-1.7 7.1 7.1 0 01-.8-1.9 13.3 13.3 0 01-.7-2.7v-.1c2 1.4 3.5 2.5 6.1 1.6s5.8-5.3 6.1-11.2a25.2 25.2 0 01.2 7.3zM60 8.4a5.6 5.6 0 01-1.1 3.2c-10.7 13.3-7 16.4-6.5 16.2-1-.7-2.3-3.8 8.4-13.2a14.7 14.7 0 002.6-3 6.5 6.5 0 001.2-3.2 3.2 3.2 0 00-1.4-2.9 3.2 3.2 0 00-2.9 0 5.3 5.3 0 00-1 .6 3.5 3.5 0 01.7 2.3zM69.1 28.4a6.7 6.7 0 01-4.1 1.7l-3.2.6a28 28 0 003.1-2c2.2-1.4.1-3.7-.4-4a3.4 3.4 0 00-.3-.3h.1l.2-.1a4.8 4.8 0 014.6.3 2.4 2.4 0 011 1.5 2.8 2.8 0 01-1 2.3zM53 48.8c-1-1.6-2.3-3.2-2.1-5a2.6 2.6 0 01.8-1.7 3.8 3.8 0 011.3-.8c-6.3 1-1.4 9.7-.7 10.6.9 1.2 4 6.2 2.4 8.6a3 3 0 00.8.7 3.7 3.7 0 001 .4 2.1 2.1 0 001.6-.1c3.6-2.2.1-6.6-1-8-1-1.5-3.2-3.1-4.2-4.7zM74.7 39.4c-1-1.4-2.9-1.6-4.6-1.7h-3.8a5.1 5.1 0 013.9 1.7 5.8 5.8 0 01.3 5A3.5 3.5 0 0169 46a6.7 6.7 0 003.1.4 3.9 3.9 0 003.1-2 5.8 5.8 0 00-.4-5zM33.1 49.8a1.7 1.7 0 00-.8-1.6c-1-.5-2.2.3-3 1-2.6 2-4 5-6.2 7.2a16.7 16.7 0 01-6.6 4l-.7.2a5.3 5.3 0 002 .4 10 10 0 003.2-.6 16.7 16.7 0 006.7-4c2-2 3.3-4.7 5.4-6.6zM16.1 17c6 7.8 14.2 11 14.6 10.9a11.7 11.7 0 01-5-3.1c-2-2.2-3.5-5-5-7.7a8.5 8.5 0 00-2-2.7 3 3 0 00-3-.5 4 4 0 00-1.2.9 22.7 22.7 0 011.6 2.3z"/>
    </g>
  </g>
  <g clip-path="url(#a)" transform="translate(-433 -199.6)">
    <g fill="#1caae9">
      <path d="M475.8 324a4 4 0 01-.9 1 3.3 3.3 0 01-3 .3 6.2 6.2 0 01-2.7-2l-1.9-2.6c-1.5-2-5.9-7.3-9.2-6.5a2.2 2.2 0 00-1.3 1c-.8 1.3-.5 3-.4 4.6s1.2 3.6 1.4 5.2c.3 1.5 1.2 6.1-2.3 6.4a1.8 1.8 0 01-1.2-.5 3.1 3.1 0 01-.7-.8 3 3 0 01-.4-2c.7-5 .6-12.2-1.5-13.5a1.5 1.5 0 00-1.3-.2 4.1 4.1 0 00-2.2 2.3 23.8 23.8 0 00-1.8 4.6l-.6 2.7-.2.6a21.4 21.4 0 01-2.7 5.6 11.5 11.5 0 01-3.2 3.4 6 6 0 01-4.6 1 4 4 0 01-3.1-3.3 6 6 0 010-1.7 11.3 11.3 0 01.6-2.3v-.1c1-2.4 3-4.1 5-5.7 2.4-2 8.4-6.5 7-8.4-.6-.7-1.8-.6-2.8-.4-2.6.5-4.8 2.3-7.4 3.2a14.2 14.2 0 01-6.6.4 8.5 8.5 0 01-2.7-.8 4 4 0 01-1.9-2 2.1 2.1 0 010-1.8 2.5 2.5 0 011-.9 9.3 9.3 0 015.2-1l5.2.7a15 15 0 004.8-.1 8.6 8.6 0 004.2-2.2 2.8 2.8 0 001-2.3 2.2 2.2 0 00-.4-1 5 5 0 00-4.2-1.5 40.5 40.5 0 01-4.6.2 7.2 7.2 0 01-3.2-1 4.7 4.7 0 01-2.1-2.7 2.8 2.8 0 011.1-3.1 3.5 3.5 0 012.1-.4 10.6 10.6 0 014.4 1.8c1.7 1 3.3 2.4 5.2 2.7.7.2 1.7.4 2.2-.2a2.8 2.8 0 00.3-2.4 7.6 7.6 0 00-1-2.2c-2.4-3.5-5.1-6.9-6.2-11a7.5 7.5 0 01-.2-2.8 3.8 3.8 0 013.8-3.3 2.5 2.5 0 012 1.6 7.2 7.2 0 01.5 2.8 29.1 29.1 0 00.9 7.8 8.5 8.5 0 005 5.7 4.3 4.3 0 004-.6c1.3-1 1.6-2.8 2-4.4a12 12 0 011.6-3.2 4.8 4.8 0 011.7-1.6 2.2 2.2 0 012.3 0c1 .7.9 2.4.2 3.5s-2 1.7-2.7 2.9c-3 5.7 1.5 6.3 4.4 4.6a29.7 29.7 0 003.3-2.2 34.4 34.4 0 019.2-5.5 6.5 6.5 0 012.5-.5 2.7 2.7 0 012.2 1.1 2.7 2.7 0 010 2.8 5.5 5.5 0 01-2.2 1.9 12.5 12.5 0 01-3.1 1.2c-13 3.4-11.8 6.5-11.3 7a3.7 3.7 0 001.8 1.2 13.7 13.7 0 004.5.7c1.3 0 2.5-.2 3.8-.1h.3a4 4 0 013.3 2 2 2 0 01.1 1.5 2.4 2.4 0 01-1.5 1.4 5.7 5.7 0 01-3.8-.3l-2.7-.8a18 18 0 00-3.3-.6c-2.2-.2-4 .4-4 2.5-.1 1.2 1.4 1.7 2.4 2.3l.7.5c2.5 1.4 5.3 2.5 7.8 3.9 1.3.6 2.6 1.5 2.9 3a4.1 4.1 0 01-.8 3zM463.4 278.7c-1.2 1.1-3.2 3.6-.6 5.2a2.3 2.3 0 002.6-.2c5-4 .4-7-2-5zM419.8 293.8c-.7 1.5-.2 4.5 3.6 5.1 1.7.3 2.8-1.3 3.1-2a3.3 3.3 0 00.5-1.3 3 3 0 00-1-2.2c-1.6-1.7-5-2.2-6.2.4zM454.8 339.8c0 4 6.5 6 6.2-.8 0-2.2-1.8-3.8-3.2-3.6-1.7.2-3 2.4-3 4.4z"/>
    </g>
    <g fill="#008fce">
      <path d="M443 330.2a11.5 11.5 0 01-3.3 3.4 6 6 0 01-4.6 1 4 4 0 01-3-3.3 6 6 0 010-1.7 11.3 11.3 0 01.5-2.3v-.1c1 1.9 1.7 3.2 4 3.5s6.4-1.7 9-6.1a21.4 21.4 0 01-2.7 5.6zM477.4 292a4.7 4.7 0 01-2.1 2c-13.2 5.9-11.7 9.6-11.2 9.7-.4-1-.3-3.8 11.5-6.8a12.5 12.5 0 003.1-1.2 5.5 5.5 0 002.1-2 2.7 2.7 0 00.1-2.7 2.7 2.7 0 00-2.2-1.1 4.5 4.5 0 00-1 0 3 3 0 01-.3 2.1zM476.5 310.6a5.7 5.7 0 01-3.8-.3c-.7-.3-1.6-.6-2.6-.8a23.8 23.8 0 003.2-.3c2.2-.2 1.4-2.8 1.2-3.2a2.9 2.9 0 00-.1-.3h.3a4 4 0 013.3 2 2 2 0 01.1 1.5 2.4 2.4 0 01-1.6 1.4zM456.4 319.8c-.1-1.6-.4-3.3.4-4.6a2.2 2.2 0 011.3-1 3.3 3.3 0 011.3 0c-5.2-1.8-4.8 6.8-4.6 7.7.2 1.3.5 6.2-1.5 7.4a2.5 2.5 0 00.3.8 3.1 3.1 0 00.7.8 1.8 1.8 0 001.2.5c3.5-.3 2.6-5 2.3-6.4-.2-1.6-1.2-3.6-1.4-5.2zM476.6 321c-.3-1.4-1.6-2.3-2.9-3l-2.9-1.4a4.4 4.4 0 012.3 2.7 4.1 4.1 0 01-.8 3 4 4 0 01-.8.9 3 3 0 01-1.8.6 5.7 5.7 0 002.1 1.5 3.3 3.3 0 003.1-.3 5 5 0 001.7-4zM441.1 312.9a1.4 1.4 0 000-1.5c-.6-.8-1.8-.6-2.7-.5-2.7.5-4.9 2.3-7.4 3.2a14.2 14.2 0 01-6.6.4h-.6a4.5 4.5 0 001.4 1 8.6 8.6 0 002.6.8 14.2 14.2 0 006.6-.4c2.3-.8 4.4-2.4 6.7-3zM440.8 281.6a27.5 27.5 0 006.9 13.8 10 10 0 01-2.5-4.2 29.1 29.1 0 01-.9-7.8 7.2 7.2 0 00-.4-2.8 2.5 2.5 0 00-2.1-1.6 3.4 3.4 0 00-1.3.2 19.2 19.2 0 01.3 2.4z"/>
    </g>
  </g>
</svg>