<svg xmlns="http://www.w3.org/2000/svg" fill="#7D64E1" viewBox="-40 0 427 427">
  <defs/>
  <path d="M232.4 154.7a10 10 0 00-10 10v189a10 10 0 0020 0v-189a10 10 0 00-10-10zm0 0M114.4 154.7a10 10 0 00-10 10v189a10 10 0 0020 0v-189a10 10 0 00-10-10zm0 0"/>
  <path d="M28.4 127.12V373.5c0 14.56 5.34 28.24 14.67 38.05A49.25 49.25 0 0078.8 427H268a49.23 49.23 0 0035.73-15.45c9.33-9.81 14.67-23.49 14.67-38.05V127.12A38.2 38.2 0 00308.6 52h-51.2V39.5A39.29 39.29 0 00217.8 0H129a39.29 39.29 0 00-39.6 39.5V52H38.2a38.2 38.2 0 00-9.8 75.12zM268 407H78.8c-17.1 0-30.4-14.69-30.4-33.5V128h250v245.5c0 18.81-13.3 33.5-30.4 33.5zM109.4 39.5A19.25 19.25 0 01129 20h88.8a19.26 19.26 0 0119.6 19.5V52h-128zM38.2 72h270.4a18 18 0 110 36H38.2a18 18 0 110-36zm0 0"/>
  <path d="M173.4 154.7a10 10 0 00-10 10v189a10 10 0 0020 0v-189a10 10 0 00-10-10zm0 0"/>
</svg>