<svg fill="#ff9d81" xmlns="http://www.w3.org/2000/svg" viewBox="0 0 512 512">
  <defs/>
  <path d="M138.34 324.45l.3.05c-.72-.18-.75-.18-.3-.05z"/>
  <path d="M512 290c0-.85-.12-1.66-.34-2.41-1.81-8.66-7.5-15.95-15.68-22.2a70.21 70.21 0 00-14.8-8.75c-1-.43-2.09-.65-3.18-.67-1.41-.02-4.13-.1-7.96-.28-6.43-.29-13.6-.75-21.33-1.4a508.6 508.6 0 01-58.49-8.26c-1.68-.35-3.35-.7-5.01-1.07-31.3-6.9-56.26-16.7-72-29.53l-.28-.2a67.61 67.61 0 01-5.73-5.23l-.3-.31c-.47-.5-.91-1-1.35-1.5l-.4-.44c-1.36-1.6-2.73-3.16-4.12-4.7-18.48-20.53-38.34-35.72-58.25-46.36-12.1-6.47-21.66-10-27.4-11.41a8.53 8.53 0 00-8.08 2.25l-17.06 17.07-.46.44a265.98 265.98 0 01-15.57 13.92c-.36.3-.68.62-.98.96-50.26 41.58-91.48 42.04-124.6 18a87.1 87.1 0 01-12.24-10.72 51.9 51.9 0 01-3.87-4.5 8.53 8.53 0 00-14.07.35C3.15 206.6-1.83 233.91.7 262.53c.88 9.92 2.62 19.31 4.9 27.9 0 .06.03.12.04.19A8.53 8.53 0 000 298.64v42.66a8.53 8.53 0 008.53 8.54H128c2.26 0 4.43-.9 6.03-2.5l5.03-5.02c3.32.88 7.6 2 10.95 2.82a747.82 747.82 0 0040.89 8.83c60.3 11.33 121.84 16.17 179.48 10.82 53.21-4.94 99.73-18.42 137.59-41.93a8.53 8.53 0 004.03-7.25v-25.4-.2zM201.8 177.17l.42-.4 13.5-13.5 1.64.58c5.13 1.9 10.87 4.45 17.08 7.75l-10.07 10.08a8.53 8.53 0 0012.07 12.07l13.1-13.11c5.21 3.47 10.4 7.3 15.52 11.5l-15.1 15.13a8.53 8.53 0 1012.08 12.06l15.76-15.78a223.25 223.25 0 0114.38 15.31l.72.8 1.12 1.25.41.44c.6.63 1.2 1.26 1.83 1.88l-.45.38-.25.2a45.16 45.16 0 01-43.54 7.14c-.2-.08-.41-.12-.62-.18a45.05 45.05 0 01-12.84-7.47l-45.64-37.84c2.94-2.64 5.9-5.4 8.88-8.3zm98.48 64.17l.13-.08c.53-.34 1.06-.67 1.58-1.02l.2-.14a62.51 62.51 0 006.18-4.76l.78-.7.52-.48c17.19 11.61 40.67 20.38 69.12 26.87l-1.49 1.88a460.61 460.61 0 01-34 37.92 458.21 458.21 0 01-16.04 15.21c-36.6.4-76.31-2.19-119.13-8.12 11-18.9 25.9-39.16 43.64-59.15a62.4 62.4 0 0048.51-7.43zm168.99 31.41l6.2.24c1 .28 1.66.62 2.41 1.02a57.38 57.38 0 017.73 4.94 32.3 32.3 0 017.04 7.07c-1.05.5-2.22 1.03-3.5 1.6a252.23 252.23 0 01-32.3 11.5c-30.21 8.7-64.9 14.42-104.17 16.44l2.69-2.66a469.04 469.04 0 0042.04-48.08 538.56 538.56 0 0049.86 6.49 561.6 561.6 0 0022 1.44zm-442.1-70.5c3.17 3.04 6.98 6.28 11.43 9.5 38.33 27.8 86.37 27.86 141.05-15.12l48.02 39.81c2.41 2 4.93 3.78 7.53 5.36-18.61 21.48-34.07 43.23-45.18 63.51-19.41-3.09-39.5-6.83-60.33-11.32A183.41 183.41 0 0091.13 290l-67.9.08a149.6 149.6 0 01-5.52-29.06c-1.88-21.09.85-41.1 9.46-58.8zM494.93 310.8c-34.66 20.48-77.27 32.46-126.12 37-55.85 5.18-115.9.46-174.76-10.6a731 731 0 01-39.96-8.63 747.45 747.45 0 01-15.75-4.12 8.52 8.52 0 00-7.84 2.29l-6.04 6.03H17.06v-25.61l74.08-.08c12.09 0 23.78 1.18 34.95 3.59 143.4 30.9 254.46 28.17 335.47 4.84 1.7-.48 3.35-.98 4.97-1.47l.16-.05c1.55-.47 3.06-.95 4.54-1.42l.9-.3 3.63-1.2 1.14-.4c1.08-.36 2.15-.74 3.2-1.1l1.26-.47c.98-.35 1.95-.7 2.9-1.07l1.3-.5 2.67-1.03 1.3-.53 2.5-1.02 1.26-.54 1.64-.7v7.1z"/>
</svg>