<svg fill="#6fb9ff" height="512" viewBox="0 0 61 45" width="512" xmlns="http://www.w3.org/2000/svg"><path id="Shape" d="m44.07 4.84c.35-4.66-7.44-5.41-8-.66-4.87.64-13.1 2.67-17.56 9.06-4.18 6-5.28 14.07-5.5 16.08-5.01 3.62-9.43 6.34-11.43 8.25-.66520416.639418-.7748644 1.6643195-.26 2.43.27012004.4168681.6949995.7091349 1.18089774.8123179.48589825.103183.99288423.0088027 1.40910226-.2623179.24-.16 2.53-1.5 8.45-.66 10.65 1.51 8.33 7 19.73 6 9.9-.9 15.87-8 17.39-10 1.89.09 3.74.21 5.6.45 1.2632918.2910206 2.588385.135543 3.75-.44 1.0091624-.6567219 1.6924122-1.7106711 1.88-2.9.3572275-1.9386088.5080693-3.9096083.45-5.88-.02-11.4-6.45-18.88-17.09-22.28zm-19.91 24.41c.6-5.07 3.47-20.86 15.67-23.31 9.28 5.23 4.77 23 3.47 27.47-7.58-1.1-15.15-3.41-19.14-4.16zm17.9-25c-1.2510938-.3935046-2.5786755-.47926569-3.87-.25.55-1.51 3.59-1.28 3.87.28zm-21.86 10.14c3.07-4.42 8.35-6.54 12.69-7.56-8 5.77-10.17 17.68-10.71 22.17-2.3186462-.3238558-4.6650958-.4009534-7-.23.34-2.77 1.57-9.44 5.02-14.38zm11.71 29.49c-10.56 1-8-4.39-19.27-6-4.94-.7-7.72 0-9 .55 2.16-1.81 6.36-4.43 10.75-7.6 9.33-1.4 20.17 4.22 32.61 5-3.816105 4.5135453-9.2159353 7.3941704-15.09 8.05zm26.84-11.31c-.41 1.94-1.43 2.09-3.41 1.83-4.37-.57-6.76-.39-10-.74 2.3-8 4-20.21-1.19-26.68 7.18 2.47 12.6 7 14.39 14.52.770948 3.643343.8422132 7.4000388.21 11.07z" transform="translate(-1 -1)"/></svg>