<?xml version="1.0" encoding="iso-8859-1"?>
<!-- Generator: Adobe Illustrator 19.0.0, SVG Export Plug-In . SVG Version: 6.00 Build 0)  -->
<svg fill="#24d9ed" version="1.1" id="Capa_1" xmlns="http://www.w3.org/2000/svg" xmlns:xlink="http://www.w3.org/1999/xlink" x="0px" y="0px"
	 viewBox="0 0 512 512" style="enable-background:new 0 0 512 512;" xml:space="preserve">
<g>
	<g>
		<path d="M409.588,494.481l-25.6-486.4C383.749,3.558,380.003,0,375.463,0H136.529c-4.54,0-8.286,3.558-8.516,8.09l-25.6,486.4
			c-0.239,4.548,3.14,8.491,7.671,8.943l85.333,8.533c4.471,0.384,8.55-2.671,9.267-7.117l51.311-315.204l51.311,315.196
			c0.683,4.156,4.284,7.159,8.414,7.159c0.282,0,0.563-0.017,0.862-0.043l85.333-8.533
			C406.447,502.972,409.818,499.029,409.588,494.481z M322.863,494.174l-58.445-359.014c-0.674-4.13-4.241-7.159-8.422-7.159
			c-4.181,0-7.748,3.029-8.422,7.168l-58.445,359.014l-69.248-6.929l24.747-470.187h222.737l24.747,470.178L322.863,494.174z"/>
	</g>
</g>
<g>
	<g>
		<rect x="136.529" y="34.133" width="238.933" height="17.067"/>
	</g>
</g>
<g>
	<g>
		<path d="M247.463,8.533v111.863c-10.752-9.907-17.058-23.919-17.067-39.074V8.533h-17.067v72.789
			c0.017,26.778,14.899,50.859,38.852,62.839c1.203,0.606,2.509,0.905,3.814,0.905c1.553,0,3.115-0.427,4.48-1.271
			c2.517-1.562,4.053-4.301,4.053-7.262v-128H247.463z"/>
	</g>
</g>
<g>
	<g>
		<path d="M170.825,41.02l-1.024,5.171c-4.13,20.54-16.964,37.82-35.354,47.676h-6.451v17.067h8.533
			c1.331,0,2.637-0.307,3.823-0.896c24.055-12.058,40.883-34.099,46.191-60.51l1.024-5.205L170.825,41.02z"/>
	</g>
</g>
<g>
	<g>
		<path d="M377.553,93.858c-18.398-9.856-31.232-27.128-35.354-47.642l-1.024-5.205l-16.751,3.302l1.033,5.24
			c5.308,26.377,22.144,48.418,46.182,60.476c1.186,0.597,2.5,0.905,3.823,0.905h8.533V93.858H377.553z"/>
	</g>
</g>
<g>
</g>
<g>
</g>
<g>
</g>
<g>
</g>
<g>
</g>
<g>
</g>
<g>
</g>
<g>
</g>
<g>
</g>
<g>
</g>
<g>
</g>
<g>
</g>
<g>
</g>
<g>
</g>
<g>
</g>
</svg>
